<?xml version="1.0" encoding="UTF-8" standalone="no"?>
<!-- Created with Inkscape (http://www.inkscape.org/) -->

<svg
   width="512"
   height="512"
   viewBox="0 0 135.46666 135.46667"
   version="1.1"
   id="svg1"
   sodipodi:docname="ruler_inkscape_small_menu_icon.svg"
   inkscape:version="1.3.2 (091e20e, 2023-11-25, custom)"
   inkscape:export-filename="ruler_inkscape.png"
   inkscape:export-xdpi="75"
   inkscape:export-ydpi="75"
   xmlns:inkscape="http://www.inkscape.org/namespaces/inkscape"
   xmlns:sodipodi="http://sodipodi.sourceforge.net/DTD/sodipodi-0.dtd"
   xmlns="http://www.w3.org/2000/svg"
   xmlns:svg="http://www.w3.org/2000/svg">
  <sodipodi:namedview
     id="namedview1"
     pagecolor="#ffffff"
     bordercolor="#000000"
     borderopacity="0.25"
     inkscape:showpageshadow="2"
     inkscape:pageopacity="0.0"
     inkscape:pagecheckerboard="0"
     inkscape:deskcolor="#d1d1d1"
     inkscape:document-units="px"
     showguides="true"
     inkscape:zoom="1.2557481"
     inkscape:cx="261.19888"
     inkscape:cy="271.15311"
     inkscape:window-width="1920"
     inkscape:window-height="991"
     inkscape:window-x="-9"
     inkscape:window-y="-9"
     inkscape:window-maximized="1"
     inkscape:current-layer="layer1"
     inkscape:export-bgcolor="#ffffff00"
     showgrid="false" />
  <defs
     id="defs1">
    <clipPath
       clipPathUnits="userSpaceOnUse"
       id="clipPath38">
      <g
         inkscape:label="Clip"
         id="use38">
        <path
           d="m 16.81086,-34.827332 c -2.634435,0 -4.755265,2.12083 -4.755265,4.755266 v 49.963875 c 0,2.634435 2.12083,4.755265 4.755265,4.755265 h 10.113595 v -35.296036 c 0,-2.634436 2.12083,-4.755782 4.755265,-4.755782 2.634435,0 4.755265,2.121346 4.755265,4.755782 v 35.296036 h 11.854574 c 2.634435,0 4.755265,-2.12083 4.755265,-4.755265 v -49.963875 c 0,-2.634436 -2.12083,-4.755266 -4.755265,-4.755266 z"
           style="fill:#dcb514;stroke-width:6.00001;stroke-linecap:round;stroke-dasharray:12, 12"
           id="path81" />
      </g>
    </clipPath>
  </defs>
  <g
     inkscape:label="Layer 1"
     inkscape:groupmode="layer"
     id="layer1"
     transform="matrix(0.76915067,-0.76915067,0.76915067,0.76915067,-90.513633,77.329546)">
    <rect
       style="fill:#000000;fill-opacity:1;stroke:#000000;stroke-width:3.40537;stroke-linejoin:round;stroke-dasharray:none;stroke-opacity:1;paint-order:stroke markers fill"
       id="rect1-7"
       width="20.691963"
       height="1.7562468"
       x="-1.9310231"
       y="94.715439"
       transform="rotate(-45)"
       ry="0.36336145" />
    <rect
       style="fill:#000000;fill-opacity:1;stroke:#000000;stroke-width:3.19491;stroke-linejoin:round;stroke-dasharray:none;stroke-opacity:1;paint-order:stroke markers fill"
       id="rect1-7-8"
       width="16.264339"
       height="1.9667064"
       x="42.725494"
       y="94.610207"
       transform="rotate(-45)"
       ry="0.40690482" />
    <rect
       style="fill:#000000;fill-opacity:1;stroke:#000000;stroke-width:3.40537;stroke-linejoin:round;stroke-dasharray:none;stroke-opacity:1;paint-order:stroke markers fill"
       id="rect1-7-6"
       width="20.691963"
       height="1.7562468"
       x="134.67287"
       y="-58.884605"
       transform="rotate(45)"
       ry="0.36336145" />
    <rect
       style="fill:#000000;fill-opacity:1;stroke:#000000;stroke-width:3.19491;stroke-linejoin:round;stroke-dasharray:none;stroke-opacity:1;paint-order:stroke markers fill"
       id="rect1-7-6-0"
       width="16.264339"
       height="1.9667064"
       x="94.610207"
       y="-58.989834"
       transform="rotate(45)"
       ry="0.40690482" />
    <rect
       style="fill:none;fill-opacity:1;stroke:#000000;stroke-width:3.16212774;stroke-linejoin:round;stroke-dasharray:none;stroke-opacity:1;paint-order:stroke markers fill"
       id="rect25-0"
       width="120.15504"
       height="38.624664"
       x="49.286358"
       y="82.470299"
       ry="7.7163634"
       transform="rotate(0.03436983)" />
    <path
       d="m 83.133053,83.13383 0.294505,11.835224 c 0.02491,1.000553 0.850643,1.79869 1.851224,1.789847 l 2.521627,-0.02195 c 1.00059,-0.0089 1.78598,-0.821868 1.76107,-1.822433 l -0.29237,-11.755402 z"
       style="fill:#000000;fill-opacity:1;stroke-width:0.20835"
       id="path52" />
    <path
       d="m 128.56366,83.13383 0.29453,11.83523 c 0.0249,1.000549 0.85064,1.798689 1.85122,1.789843 l 2.52162,-0.02196 c 1.00058,-0.0089 1.78599,-0.821863 1.76106,-1.82244 l -0.29237,-11.755409 z"
       style="fill:#000000;fill-opacity:1;stroke-width:0.20835"
       id="path52-4" />
    <path
       d="m 60.044302,83.133836 0.630699,20.630094 c 0.03086,1.00946 0.914631,1.8202 1.982079,1.81807 l 2.690842,-0.005 c 1.067447,-0.002 1.902287,-0.81642 1.871433,-1.82587 L 66.591912,83.237106 Z"
       style="fill:#000000;fill-opacity:1;stroke-width:0.262185"
       id="path50" />
    <path
       d="m 105.47492,83.133836 0.6307,20.630084 c 0.0309,1.00946 0.91463,1.8202 1.98207,1.81807 l 2.69085,-0.005 c 1.06745,-0.002 1.90229,-0.81642 1.87142,-1.82588 l -0.62744,-20.514015 z"
       style="fill:#000000;fill-opacity:1;stroke-width:0.262185"
       id="path50-5" />
    <path
       d="m 150.90553,83.133836 0.63069,20.630084 c 0.0309,1.00945 0.91464,1.8202 1.98209,1.81806 l 2.69084,-0.005 c 1.06745,-0.002 1.90229,-0.81642 1.87142,-1.82587 l -0.62745,-20.514022 z"
       style="fill:#000000;fill-opacity:1;stroke-width:0.262185"
       id="path50-5-5" />
  </g>
</svg>
