<?xml version="1.0" encoding="UTF-8" standalone="no"?>
<!-- Created with Inkscape (http://www.inkscape.org/) -->

<svg
   width="512"
   height="512"
   viewBox="0 0 135.46666 135.46667"
   version="1.1"
   id="svg1"
   sodipodi:docname="ruler_inkscape.svg"
   inkscape:version="1.3 (0e150ed6c4, 2023-07-21)"
   inkscape:export-filename="ruler_inkscape.png"
   inkscape:export-xdpi="75"
   inkscape:export-ydpi="75"
   xmlns:inkscape="http://www.inkscape.org/namespaces/inkscape"
   xmlns:sodipodi="http://sodipodi.sourceforge.net/DTD/sodipodi-0.dtd"
   xmlns="http://www.w3.org/2000/svg"
   xmlns:svg="http://www.w3.org/2000/svg">
  <sodipodi:namedview
     id="namedview1"
     pagecolor="#ffffff"
     bordercolor="#000000"
     borderopacity="0.25"
     inkscape:showpageshadow="2"
     inkscape:pageopacity="0.0"
     inkscape:pagecheckerboard="0"
     inkscape:deskcolor="#d1d1d1"
     inkscape:document-units="px"
     showguides="true"
     inkscape:zoom="1.3025783"
     inkscape:cx="309.00254"
     inkscape:cy="251.42442"
     inkscape:window-width="1649"
     inkscape:window-height="1266"
     inkscape:window-x="889"
     inkscape:window-y="282"
     inkscape:window-maximized="0"
     inkscape:current-layer="layer1"
     inkscape:export-bgcolor="#ffffff00" />
  <defs
     id="defs1">
    <clipPath
       clipPathUnits="userSpaceOnUse"
       id="clipPath38">
      <g
         inkscape:label="Clip"
         id="use38">
        <path
           d="m 16.81086,-34.827332 c -2.634435,0 -4.755265,2.12083 -4.755265,4.755266 v 49.963875 c 0,2.634435 2.12083,4.755265 4.755265,4.755265 h 10.113595 v -35.296036 c 0,-2.634436 2.12083,-4.755782 4.755265,-4.755782 2.634435,0 4.755265,2.121346 4.755265,4.755782 v 35.296036 h 11.854574 c 2.634435,0 4.755265,-2.12083 4.755265,-4.755265 v -49.963875 c 0,-2.634436 -2.12083,-4.755266 -4.755265,-4.755266 z"
           style="fill:#dcb514;stroke-width:6.00001;stroke-linecap:round;stroke-dasharray:12, 12"
           id="path81" />
      </g>
    </clipPath>
  </defs>
  <g
     inkscape:label="Layer 1"
     inkscape:groupmode="layer"
     id="layer1"
     transform="matrix(0.76915067,-0.76915067,0.76915067,0.76915067,-90.513633,77.329546)">
    <path
       d="m 64.663607,99.292807 a 4.3755082,4.3755082 0 0 0 -6.187941,0 4.3755082,4.3755082 0 0 0 0,6.187953 L 72.0895,119.09458 a 4.3755082,4.3755082 0 0 0 6.18794,0 4.3755082,4.3755082 0 0 0 0,-6.18794 z"
       style="fill:#fc0000;stroke-width:1.08227;stroke-linecap:round;stroke-linejoin:round;stroke-dasharray:19.2523, 19.2523;stroke-dashoffset:41.1298"
       id="path91" />
    <path
       d="m 159.95759,99.712736 a 4.3755082,4.3755082 0 0 0 -6.18794,0 l -13.61383,13.613824 a 4.3755082,4.3755082 0 0 0 0,6.18794 4.3755082,4.3755082 0 0 0 6.18794,0 l 13.61383,-13.61382 a 4.3755082,4.3755082 0 0 0 0,-6.187944 z"
       style="fill:#fc0000;stroke-width:1.08227;stroke-linecap:round;stroke-linejoin:round;stroke-dasharray:19.2523, 19.2523;stroke-dashoffset:41.1298"
       id="path86" />
    <path
       d="m 159.95759,99.712736 a 4.3755082,4.3755082 0 0 1 0,6.187944 l -13.61383,13.61382 a 4.3755082,4.3755082 0 0 1 -6.18794,0 4.3755082,4.3755082 0 0 1 0,-6.18794 l 13.61383,-13.613824 a 4.3755082,4.3755082 0 0 1 6.18794,0 z"
       style="fill:#fc0000;stroke-width:1.08227;stroke-linecap:round;stroke-linejoin:round;stroke-dasharray:19.2523, 19.2523;stroke-dashoffset:41.1298"
       id="path85" />
    <rect
       style="fill:#a5600e;fill-opacity:1;stroke-width:0.301874"
       id="rect25-0"
       width="134.00017"
       height="37.003647"
       x="42.362553"
       y="84.252647"
       ry="8.6054993"
       transform="rotate(0.03436983)" />
    <rect
       style="fill:#d28c39;fill-opacity:1;stroke-width:0.301874"
       id="rect25-0-1"
       width="134.00017"
       height="37.003647"
       x="42.359032"
       y="78.497841"
       ry="8.6054993"
       transform="rotate(0.03436983)"
       inkscape:label="newFore" />
    <path
       d="m 128.48634,78.555494 0.32524,15.199977 c 0.0271,1.263002 1.06528,2.266912 2.32848,2.251304 l 3.18398,-0.03947 c 1.26321,-0.01561 2.25829,-1.044862 2.23129,-2.307865 l -0.32289,-15.099225 z"
       style="fill:#5d3608;stroke-width:0.263021"
       id="path46" />
    <path
       d="m 81.524786,78.525445 0.319341,14.939554 c 0.02701,1.263002 1.065881,2.266915 2.329077,2.251302 l 3.183404,-0.03889 c 1.263196,-0.01561 2.258285,-1.045452 2.23127,-2.308455 L 89.270893,78.530158 Z"
       style="fill:#5d3608;stroke-width:0.263021"
       id="path52" />
    <path
       d="m 58.044044,78.510125 0.397097,25.814945 c 0.01943,1.26316 1.110402,2.26132 2.446787,2.23835 l 3.368777,-0.0577 c 1.336384,-0.023 2.397016,-1.05827 2.377592,-2.32143 L 66.23907,78.51484 Z"
       style="fill:#5d3608;stroke-width:0.328193"
       id="path50" />
    <path
       d="m 112.7517,78.545478 -7.7461,-0.0047 0.36649,25.192742 c 0.0184,1.26316 1.05008,2.26191 2.31315,2.23894 l 3.18341,-0.0583 c 1.26309,-0.023 2.26554,-1.05825 2.24718,-2.32142 z"
       style="fill:#5d3608;stroke-width:0.319065"
       id="path44" />
    <path
       d="m 151.96709,78.568457 0.40477,26.367013 c 0.0195,1.26317 1.1099,2.26133 2.44494,2.23836 l 3.36535,-0.0577 c 1.33504,-0.023 2.39459,-1.05826 2.37519,-2.32143 l -0.40293,-26.222116 z"
       style="fill:#5d3608;stroke-width:0.328026"
       id="path48" />
    <path
       d="m 83.681407,46.826461 a 5.4728999,5.4728999 0 0 0 -7.739196,0 L 58.913493,63.855179 a 5.4728999,5.4728999 0 0 0 0,7.739196 5.4728999,5.4728999 0 0 0 7.739532,3.36e-4 L 83.681743,54.565993 a 5.4728999,5.4728999 0 0 0 -3.36e-4,-7.739532 z"
       style="fill:#fc0000;stroke-linecap:round;stroke-linejoin:round;stroke-dasharray:24.0808, 24.0808;stroke-dashoffset:58.0129"
       id="path97" />
    <path
       d="m 142.64751,47.199345 a 5.4728999,5.4728999 0 0 0 -7.73919,0 5.4728999,5.4728999 0 0 0 -3.4e-4,7.739532 l 17.02738,17.027375 a 5.4728999,5.4728999 0 0 0 7.73953,-3.36e-4 5.4728999,5.4728999 0 0 0 0,-7.739196 z"
       style="fill:#fc0000;stroke-linecap:round;stroke-linejoin:round;stroke-dasharray:24.0808, 24.0808;stroke-dashoffset:58.0129"
       id="path93" />
    <path
       d="m 115.55797,20.109806 c -0.32094,-0.320981 -0.66764,-0.61824 -1.0387,-0.892235 -1.83477,-1.35906 -4.0198,-1.958464 -6.27923,-1.738783 -2.15201,0.202964 -4.08662,1.123539 -5.59629,2.646135 l -9.674501,9.674499 a 5.4728999,5.4728999 0 0 0 0,7.739197 5.4728999,5.4728999 0 0 0 7.739531,3.36e-4 l 8.39964,-8.399639 8.77118,8.771179 a 5.4728999,5.4728999 0 0 0 7.74088,0.001 5.4728999,5.4728999 0 0 0 -0.001,-7.74054 z"
       style="fill:#fc0000;stroke-linecap:round;stroke-linejoin:round;stroke-dasharray:24.0808, 24.0808;stroke-dashoffset:58.0129"
       id="path92" />
  </g>
</svg>
